HIERARCHY
ROOT Hips
{
	OFFSET 305.588898 92.559578 -272.186401
	CHANNELS 6 Xposition Yposition Zposition Zrotation Yrotation Xrotation 
	JOINT LeftUpLeg
	{
		OFFSET 0.103462 1.857825 10.548491
		CHANNELS 3 Xrotation Yrotation Zrotation
		JOINT LeftLeg
		{
			OFFSET 43.500000 -0.000038 -0.000006
			CHANNELS 3 Xrotation Yrotation Zrotation
			JOINT LeftFoot
			{
				OFFSET 42.372196 0.000034 -0.000012
				CHANNELS 3 Xrotation Yrotation Zrotation
				JOINT LeftToe
				{
					OFFSET 17.299999 -0.000001 -0.000008
					CHANNELS 3 Xrotation Yrotation Zrotation
					End Site
					{
						OFFSET 0.000000 0.000000 0.000000
					}
				}
			}
		}
	}
	JOINT RightUpLeg
	{
		OFFSET 0.103456 1.857821 -10.548490
		CHANNELS 3 Xrotation Yrotation Zrotation
		JOINT RightLeg
		{
			OFFSET 43.500038 -0.000011 0.000011
			CHANNELS 3 Xrotation Yrotation Zrotation
			JOINT RightFoot
			{
				OFFSET 42.372265 0.000004 0.000029
				CHANNELS 3 Xrotation Yrotation Zrotation
				JOINT RightToe
				{
					OFFSET 17.299988 -0.000007 0.000004
					CHANNELS 3 Xrotation Yrotation Zrotation
					End Site
					{
						OFFSET 0.000000 0.000000 0.000000
					}
				}
			}
		}
	}
	JOINT Spine
	{
		OFFSET 6.901963 -2.603729 -0.000012
		CHANNELS 3 Xrotation Yrotation Zrotation
		JOINT Spine1
		{
			OFFSET 12.588106 0.000010 0.000003
			CHANNELS 3 Xrotation Yrotation Zrotation
			JOINT Spine2
			{
				OFFSET 12.343199 -0.000001 -0.000002
				CHANNELS 3 Xrotation Yrotation Zrotation
				JOINT Neck
				{
					OFFSET 25.832895 -0.000006 0.000023
					CHANNELS 3 Xrotation Yrotation Zrotation
					JOINT Head
					{
						OFFSET 11.766605 0.000011 -0.000027
						CHANNELS 3 Xrotation Yrotation Zrotation
						End Site
						{
							OFFSET 0.000000 0.000000 0.000000
						}
					}
				}
				JOINT LeftShoulder
				{
					OFFSET 19.745903 -1.480368 6.000127
					CHANNELS 3 Xrotation Yrotation Zrotation
					JOINT LeftArm
					{
						OFFSET 11.284108 0.000010 -0.000010
						CHANNELS 3 Xrotation Yrotation Zrotation
						JOINT LeftForeArm
						{
							OFFSET 33.000069 0.000000 0.000030
							CHANNELS 3 Xrotation Yrotation Zrotation
							JOINT LeftHand
							{
								OFFSET 25.199997 0.000019 0.000001
								CHANNELS 3 Xrotation Yrotation Zrotation
								End Site
								{
									OFFSET 0.000000 0.000000 0.000000
								}
							}
						}
					}
				}
				JOINT RightShoulder
				{
					OFFSET 19.746101 -1.480371 -6.000072
					CHANNELS 3 Xrotation Yrotation Zrotation
					JOINT RightArm
					{
						OFFSET 11.284140 -0.000007 -0.000004
						CHANNELS 3 Xrotation Yrotation Zrotation
						JOINT RightForeArm
						{
							OFFSET 33.000080 0.000016 -0.000002
							CHANNELS 3 Xrotation Yrotation Zrotation
							JOINT RightHand
							{
								OFFSET 25.199766 0.000146 0.000422
								CHANNELS 3 Xrotation Yrotation Zrotation
								End Site
								{
									OFFSET 0.000000 0.000000 0.000000
								}
							}
						}
					}
				}
			}
		}
	}
}
MOTION
Frames: 17
Frame Time: 0.033333
354.219391 84.400459 -95.150017 86.927551 7.671803 81.047974 152.754531 2.062097 169.564009 -26.546539 -0.713802 -4.991073 65.604158 6.669909 7.880709 21.454555 0.003109 0.000018 -154.894975 -7.787895 -175.791256 -22.206188 2.930607 1.090120 80.585652 -2.114355 -5.200164 21.454543 -0.003087 0.000000 9.496251 -0.037373 2.482825 8.973940 -0.267028 4.955195 8.657134 -0.237267 4.956699 7.631194 -3.170720 3.697660 -6.733133 -11.165184 6.440978 -157.351972 -68.240809 -24.744116 3.404882 59.190815 31.232082 -31.172140 -15.036871 1.281585 10.414206 -4.615715 9.036552 167.262877 80.282665 -11.355020 -39.194047 -48.019464 2.588135 -40.340699 17.170259 -1.608364 6.270768 8.213211 -34.494064 
353.554199 84.183731 -91.247169 88.338764 7.560957 80.661017 152.059805 2.719105 171.553752 -31.923355 -2.137603 -6.642870 67.593806 7.603352 7.620191 21.454560 0.003115 0.000019 -156.664254 -5.844099 -172.145083 -29.146429 1.354397 -0.938945 75.995362 -0.539775 -4.030650 21.454555 -0.003090 -0.000001 9.436760 -0.570460 2.338588 8.834656 -1.317627 4.627039 8.517590 -1.289834 4.634885 7.372775 -3.583261 4.270581 -7.084261 -11.529878 7.112153 -156.385131 -67.965013 -25.749410 5.890175 58.738111 32.299210 -31.837513 -15.265171 1.309931 10.725478 -3.909699 6.858141 167.502931 79.544718 -11.138173 -38.924387 -51.173082 1.772171 -35.079862 16.591756 -1.439866 8.382286 8.283162 -29.329006 
352.851807 84.064743 -87.435982 89.521739 7.630222 81.006959 152.006324 2.814094 168.543947 -37.177614 -1.857035 -5.279287 72.360773 6.399725 8.166546 21.454557 0.003109 0.000018 -160.376721 -4.067092 -170.241359 -39.323817 0.380620 -1.468388 70.107971 0.725830 -0.923763 21.454557 -0.003095 0.000001 9.423892 -0.970007 2.049580 8.799643 -2.092870 4.020069 8.482187 -2.068710 4.032605 7.867714 -4.153108 4.505510 -7.528692 -11.940970 7.476852 -157.532699 -68.164591 -24.558708 6.635914 58.545281 32.144926 -30.865362 -15.296062 1.292020 11.097002 -2.345911 6.235377 167.163293 79.387016 -11.488695 -38.326097 -54.999907 2.787777 -31.070336 15.544097 -1.285738 11.340996 7.553511 -28.077009 
352.338013 84.388123 -83.745979 90.799387 7.701500 81.163958 153.513201 3.625008 167.874930 -39.169776 -2.214263 -5.092503 75.639236 5.948663 8.021944 21.454555 0.003094 0.000018 -165.616719 -1.035003 -168.794479 -51.719104 -0.135369 -1.830157 65.411533 3.090499 4.423183 21.454545 -0.003089 0.000002 9.411315 -1.347139 1.734832 8.770973 -2.821698 3.363558 8.453043 -2.801469 3.380518 8.203250 -4.208103 4.856399 -7.072378 -12.423659 7.924648 -158.586296 -68.755614 -23.458898 5.716372 58.820756 30.923309 -29.341376 -14.838526 1.232879 11.614558 -2.008984 7.036898 167.062875 79.280096 -11.594519 -36.859601 -58.637386 3.159140 -28.265251 14.477137 -1.163763 13.590927 5.793585 -31.590916 
351.766113 85.023087 -80.098991 91.556726 7.769311 81.416019 155.863674 4.381202 168.325450 -39.635564 -2.529172 -5.200195 78.244181 5.613024 7.277556 21.454562 0.003100 0.000017 -171.368422 1.294201 -169.463195 -62.436200 0.051441 -1.212906 59.829233 3.538868 5.788546 21.454551 -0.003091 -0.000014 9.408117 -1.544740 1.314735 8.771892 -3.184493 2.509559 8.453579 -3.169435 2.528741 8.241945 -4.115408 5.359024 -5.961529 -12.619014 8.367742 -159.440193 -69.173212 -22.569901 3.357655 59.136440 29.699425 -27.314360 -14.387276 1.167069 12.000573 -2.444277 7.338948 170.924118 79.175997 -7.676389 -35.106291 -61.624637 0.930344 -26.723182 14.355758 -1.129060 14.675100 3.952014 -35.379799 
351.196503 85.906799 -76.480072 92.103749 7.827815 81.858035 158.984660 5.236099 169.379580 -38.553505 -2.829480 -5.429393 79.999977 5.467230 6.571203 21.454558 0.003107 0.000018 -177.643508 2.978394 -170.042204 -70.870678 -0.613314 -1.227029 61.069725 3.014141 4.667211 21.454551 -0.003092 -0.000005 9.379408 -1.636685 0.823204 8.727504 -3.330627 1.521274 8.408951 -3.321510 1.541370 8.761908 -3.793518 5.719487 -5.321052 -12.974707 8.804323 -161.118289 -69.386307 -20.834109 1.489567 59.238449 28.258875 -26.282754 -14.074292 1.129450 11.808037 -4.017035 8.228572 176.144882 78.614002 -2.384212 -30.796739 -63.896679 -3.150952 -26.786349 14.275252 -1.124976 14.409121 3.930937 -41.810918 
350.549896 86.926666 -73.001808 92.214514 7.848466 82.338012 162.580277 5.572697 170.328553 -36.456360 -3.047746 -5.376196 81.098579 5.233273 6.049512 21.454558 0.003105 0.000018 176.007459 3.893400 -170.921359 -76.723843 -1.381254 -0.336925 64.758335 1.841327 3.766950 21.454555 -0.003091 -0.000005 9.351251 -1.587929 0.309296 8.686049 -3.194457 0.498779 8.367437 -3.191527 0.518074 9.546123 -3.210274 6.028644 -4.858835 -13.020236 9.161443 -162.098790 -69.853690 -19.816493 -0.081327 59.717539 26.892284 -26.860033 -14.050619 1.137684 11.304334 -7.469920 7.401058 -179.667812 77.847190 1.863178 -24.128348 -65.352766 -9.023121 -27.955951 14.288839 -1.146147 13.046682 4.603085 -46.886209 
349.768799 87.856689 -69.461449 91.971482 7.953826 83.005001 166.430919 5.511403 171.598326 -34.158548 -3.238996 -5.287142 82.128899 4.999989 5.585088 21.454555 0.003111 0.000017 170.329577 4.166200 -172.572502 -79.414814 -1.355851 1.205752 65.414880 0.659470 3.718165 21.454550 -0.003081 0.000000 9.352680 -1.431165 -0.165303 8.700623 -2.845763 -0.437825 8.382109 -2.848501 -0.420621 10.339674 -2.058318 6.180157 -4.616971 -13.455021 9.520117 -163.799712 -70.457506 -18.056189 -1.965632 60.056890 25.074043 -28.250733 -14.027873 1.160708 10.859127 -11.573124 5.433591 -175.178889 77.311239 6.431812 -16.304490 -66.319928 -15.878062 -29.575928 14.401631 -1.183157 12.158960 5.630957 -45.772458 
348.996613 88.591179 -65.926086 91.765169 7.889138 83.772953 170.076601 5.449709 172.723955 -31.797567 -3.189155 -5.136146 83.080625 4.736830 5.155258 21.454557 0.003111 0.000016 165.030703 4.531501 -173.806854 -79.330352 -1.604415 2.584092 65.070003 0.105871 4.868713 21.454555 -0.003099 0.000004 9.317147 -1.265251 -0.591535 8.637315 -2.482779 -1.276064 8.318988 -2.490565 -1.261067 11.033270 -0.567262 6.214648 -4.420144 -13.610150 9.701510 -164.692404 -71.660992 -17.127113 -4.807197 60.633966 22.740186 -29.958948 -14.243417 1.206544 10.499788 -13.291451 4.869144 -170.431634 76.997706 11.272887 -8.703902 -66.980974 -23.150332 -30.775886 14.817349 -1.233165 12.136630 5.945361 -40.407047 
348.183105 88.998016 -62.384369 91.512725 7.929727 84.484003 173.537116 5.018397 173.678747 -30.033366 -3.409312 -4.890047 84.367255 4.440038 4.889443 21.454560 0.003107 0.000019 160.543118 4.643595 -174.995867 -76.729689 -1.810344 3.946412 65.107658 -1.144860 4.270639 21.454545 -0.003092 0.000003 9.348778 -1.084096 -0.931918 8.703946 -2.095005 -1.943011 8.385825 -2.106834 -1.930330 11.363234 1.008956 6.123375 -3.868081 -13.694631 9.674245 -166.412600 -72.510593 -15.353306 -8.740190 60.202858 20.058174 -31.873761 -14.739599 1.276906 10.455571 -12.383682 5.559268 -167.431487 76.652399 14.335293 -1.314162 -66.940089 -29.714820 -31.962512 15.386340 -1.293857 13.165132 4.701382 -35.270578 
347.426208 89.151817 -58.783089 91.307943 8.004784 84.833012 176.915560 4.462604 174.198073 -28.566330 -3.776100 -4.618242 85.903767 4.144502 4.715369 21.454562 0.003112 0.000018 156.749276 4.602019 -176.959833 -72.098719 -1.626297 5.011898 66.701141 -2.080669 4.084825 21.454553 -0.003081 -0.000001 9.402858 -0.934227 -1.144356 8.812270 -1.778572 -2.356725 8.494294 -1.792899 -2.345964 11.400879 2.285184 6.051820 -2.998033 -13.532807 9.538474 -168.143316 -73.414589 -13.573202 -13.612331 59.278187 16.040238 -33.608660 -14.786161 1.317042 9.961838 -9.996752 7.461147 -165.655009 76.487805 16.149989 5.143990 -66.778281 -33.203964 -32.646412 15.037845 -1.285780 13.413739 3.391455 -31.857307 
346.734894 89.045792 -55.240211 91.304623 8.181019 85.086050 -179.807353 4.116193 174.958847 -27.327882 -4.288359 -4.590284 87.536463 4.018487 4.512924 21.454555 0.003115 0.000018 153.917685 4.627301 -178.466190 -64.817170 -1.709882 5.896342 66.664094 -3.075520 3.220381 21.454550 -0.003085 -0.000002 9.505638 -0.838779 -1.319080 9.017839 -1.572214 -2.699702 8.699991 -1.588598 -2.690173 12.016057 3.237827 6.161323 -3.290034 -13.063806 9.638111 -170.305112 -74.101398 -11.356200 -18.512801 57.497898 12.238201 -35.172028 -14.594297 1.339900 9.252681 -7.564613 8.856948 -165.636513 76.428499 16.169197 9.533273 -66.596926 -35.785455 -32.159430 15.055204 -1.276647 13.145695 1.979361 -29.235385 
346.137207 88.823334 -51.675770 91.477038 8.305135 84.938962 -176.312686 4.162096 176.092208 -25.453545 -4.817195 -5.063634 88.912233 4.226741 4.177177 21.454562 0.003121 0.000018 152.575388 4.866700 179.850642 -54.663370 -1.668514 6.604283 66.153715 -3.017062 4.815099 21.454548 -0.003097 -0.000000 9.628653 -0.823211 -1.408196 9.264532 -1.531007 -2.877992 8.946757 -1.548494 -2.868705 12.229931 3.932538 6.171254 -3.175582 -12.796698 9.612684 -172.401624 -74.336712 -9.208389 -23.140485 54.636268 9.814227 -36.148677 -14.341152 1.346355 8.162689 -6.170570 9.483326 -165.818497 76.217384 15.984413 11.180538 -66.410039 -36.529672 -31.002338 14.901683 -1.243106 13.424529 0.264303 -29.037876 
345.627411 88.437172 -48.098438 91.866208 8.286572 84.541998 -172.764594 4.507994 176.800430 -23.168200 -5.212386 -5.464011 90.096554 4.402325 3.863675 21.454555 0.003092 0.000016 152.664072 5.064309 178.896123 -41.320694 -2.094241 6.488663 64.395037 -3.129201 4.223089 21.454553 -0.003086 0.000002 9.732765 -0.859696 -1.486861 9.474805 -1.594696 -3.039362 9.157068 -1.613146 -3.029694 12.120357 3.931381 6.218696 -2.705292 -12.412150 9.516112 -173.109396 -74.370119 -8.483512 -27.421340 51.599207 8.231091 -36.926653 -14.341871 1.365061 7.574846 -6.005185 10.289483 -166.443609 76.195213 15.345907 11.330967 -66.427442 -36.812210 -29.448326 14.701118 -1.199964 13.103988 -0.702975 -29.445878 
345.092987 88.028831 -44.429260 91.742794 8.112608 83.944951 -168.959537 4.179000 176.887898 -20.369233 -5.788844 -5.512595 91.070102 4.375213 3.643760 21.454558 0.003112 0.000017 154.377110 4.853897 178.096418 -25.298826 -1.785694 4.927967 63.346924 -2.165375 3.780254 21.454553 -0.003083 0.000001 9.790936 -0.783242 -1.511801 9.589180 -1.438458 -3.083503 9.271480 -1.457170 -3.074783 12.194307 3.851471 6.356031 -2.402966 -12.528903 9.639635 -174.116781 -74.540703 -7.452616 -30.922855 49.259242 7.048467 -37.248508 -14.871204 1.407275 7.299501 -6.126319 11.176761 -166.914715 76.345792 14.863982 10.977235 -66.627450 -36.721990 -28.694683 14.811091 -1.192968 14.160005 -1.278948 -34.078221 
344.592590 87.554321 -40.768360 91.406489 7.828257 83.218021 -165.065441 3.680607 176.634771 -17.230892 -6.382842 -5.413861 91.798972 4.265356 3.414939 21.454560 0.003104 0.000017 155.902305 4.889498 175.605775 -10.944698 0.701187 3.272684 64.694739 -1.438288 2.725711 21.454551 -0.003096 -0.000000 9.824115 -0.661371 -1.530322 9.652122 -1.192737 -3.110602 9.334467 -1.211624 -3.103350 12.500432 3.956929 6.555134 -2.500986 -13.205938 10.010472 -176.342015 -74.493287 -5.173088 -32.835001 47.404303 5.918535 -37.555238 -15.491595 1.455099 6.861414 -7.133059 12.239294 -166.463895 76.345997 15.324496 10.318377 -66.707036 -35.213826 -28.863888 14.932281 -1.203846 14.524607 -2.040859 -40.652009 
344.039398 86.688080 -36.938271 91.517964 7.376014 82.572022 -162.351165 3.802508 175.626020 -16.358428 -6.243475 -4.900020 93.036213 3.793640 2.729070 21.454558 0.003109 0.000019 154.389733 5.103301 173.647874 -5.734364 3.441523 1.813654 67.966987 0.323307 5.050561 21.454551 -0.003092 -0.000000 9.770166 -0.587065 -1.632802 9.542889 -1.037428 -3.308521 9.225322 -1.057514 -3.302209 12.375761 3.972615 6.721243 -2.549509 -14.044840 10.382670 -177.153824 -74.412917 -4.340679 -34.007683 46.564111 3.517387 -38.102364 -15.844048 1.491657 6.652615 -7.934200 13.193910 -166.277103 76.147832 15.516313 9.869529 -66.183679 -33.854003 -29.880394 15.224049 -1.241751 14.542764 -3.027342 -45.888967 
